<?xml version="1.0" encoding="UTF-8" standalone="no"?><!DOCTYPE svg PUBLIC "-//W3C//DTD SVG 1.1//EN" "http://www.w3.org/Graphics/SVG/1.1/DTD/svg11.dtd"><svg width="100%" height="100%" viewBox="0 0 1600 800" version="1.1" xmlns="http://www.w3.org/2000/svg" xmlns:xlink="http://www.w3.org/1999/xlink" xml:space="preserve" xmlns:serif="http://www.serif.com/" style="fill-rule:evenodd;clip-rule:evenodd;stroke-linejoin:round;stroke-miterlimit:2;"><path d="M1598.51,-4.547l-331.067,800l-88.933,0l331.068,-800l88.932,0Z" style="fill:#76d0bd;"/><path d="M537.851,-4.547l-331.067,800l-88.933,0l331.067,-800l88.933,0Z" style="fill:#dc241f;"/><path d="M420,-4.547l-331.067,800l-88.933,0l331.067,-800l88.933,0Z" style="fill:#b26300;"/><path d="M1480.66,-4.547l-331.067,800l-88.933,0l331.068,-800l88.932,0Z" style="fill:#039be5;"/><path d="M1362.81,-4.547l-331.067,800l-88.933,0l331.068,-800l88.932,0Z" style="fill:#0019a8;"/><path d="M1244.96,-4.547l-331.067,800l-88.933,0l331.068,-800l88.932,0Z"/><path d="M1127.11,-4.547l-331.067,800l-88.933,0l331.068,-800l88.932,0Z" style="fill:#9b0058;"/><path d="M1009.25,-4.547l-331.067,800l-88.933,0l331.068,-800l88.932,0Z" style="fill:#838d93;"/><path d="M891.404,-4.547l-331.067,800l-88.933,0l331.068,-800l88.932,0Z" style="fill:#f589a6;"/><path d="M773.553,-4.547l-331.067,800l-88.933,0l331.067,-800l88.933,0Z" style="fill:#007d00;"/><path d="M655.702,-4.547l-331.067,800l-88.933,0l331.067,-800l88.933,0Z" style="fill:#ffc80a;"/></svg>